<svg width="25" height="25" viewBox="0 0 25 25" fill="none" xmlns="http://www.w3.org/2000/svg">
<path d="M19.6963 6.29008C19.7936 6.28665 19.886 6.2549 19.9621 6.19875C20.0382 6.14261 20.0947 6.06454 20.1245 5.97421C20.1543 5.88388 20.1561 5.78527 20.1297 5.69058C20.1034 5.5959 20.05 5.50931 19.9762 5.44153L16.5263 2.07213C16.4215 1.96962 16.2969 1.88935 16.1611 1.83674C16.0254 1.78413 15.8815 1.76041 15.7393 1.76719L11.0631 1.98603C10.9664 1.98918 10.8744 2.02028 10.7985 2.07554C10.7225 2.1308 10.6657 2.20782 10.6352 2.29718C10.6046 2.38654 10.6016 2.48437 10.6264 2.5787C10.6513 2.67303 10.7029 2.75978 10.7751 2.82833L14.2239 6.19938C14.3287 6.30189 14.4532 6.38217 14.589 6.43478C14.7248 6.48738 14.8687 6.5111 15.0109 6.50432L19.6963 6.29008Z" stroke="white" stroke-width="2" stroke-linecap="round" stroke-linejoin="round"/>
<path d="M20.1161 5.97272L19.1729 8.73134" stroke="white" stroke-width="2" stroke-linecap="round" stroke-linejoin="round"/>
<path d="M12.1374 4.18301L11.5872 5.79221C11.4621 6.15803 11.6419 6.62498 12.0869 7.09035C12.5319 7.55572 13.2058 7.98138 13.9603 8.2737C14.7147 8.56601 15.4879 8.70103 16.1099 8.64906C16.7318 8.59709 17.1514 8.36237 17.2765 7.99656L17.8267 6.38736" stroke="white" stroke-width="2" stroke-linecap="round" stroke-linejoin="round"/>
<path d="M14.394 20.1613V13.7097C14.394 13.4958 14.3141 13.2907 14.1721 13.1394C14.03 12.9882 13.8373 12.9032 13.6364 12.9032H10.6061C10.4052 12.9032 10.2125 12.9882 10.0704 13.1394C9.92833 13.2907 9.84851 13.4958 9.84851 13.7097V20.1613" stroke="white" stroke-width="2" stroke-linecap="round" stroke-linejoin="round"/>
<path d="M5.30304 11.2903C5.30299 11.0557 5.35102 10.8239 5.44379 10.6111C5.53656 10.3982 5.67183 10.2095 5.84016 10.0581L11.1432 5.22017C11.4167 4.97413 11.7632 4.83914 12.1212 4.83914C12.4793 4.83914 12.8258 4.97413 13.0993 5.22017L18.4023 10.0581C18.5706 10.2095 18.7059 10.3982 18.7987 10.6111C18.8914 10.8239 18.9395 11.0557 18.9394 11.2903V18.5484C18.9394 18.9762 18.7798 19.3864 18.4956 19.6889C18.2115 19.9914 17.8261 20.1613 17.4243 20.1613H6.81819C6.41635 20.1613 6.03096 19.9914 5.74682 19.6889C5.46267 19.3864 5.30304 18.9762 5.30304 18.5484V11.2903Z" stroke="white" stroke-width="2" stroke-linecap="round" stroke-linejoin="round"/>
</svg>
